<svg id="visual" viewBox="0 0 900 600" width="900" height="600" xmlns="http://www.w3.org/2000/svg" xmlns:xlink="http://www.w3.org/1999/xlink" version="1.1"><rect x="0" y="0" width="900" height="600" fill="#000000"></rect><path d="M0 314L129 314L129 371L257 371L257 266L386 266L386 297L514 297L514 282L643 282L643 308L771 308L771 267L900 267L900 335L900 601L900 601L771 601L771 601L643 601L643 601L514 601L514 601L386 601L386 601L257 601L257 601L129 601L129 601L0 601Z" fill="#949ba2"></path><path d="M0 391L129 391L129 421L257 421L257 383L386 383L386 439L514 439L514 378L643 378L643 364L771 364L771 412L900 412L900 374L900 601L900 601L771 601L771 601L643 601L643 601L514 601L514 601L386 601L386 601L257 601L257 601L129 601L129 601L0 601Z" fill="#5e5f64"></path><path d="M0 487L129 487L129 517L257 517L257 474L386 474L386 478L514 478L514 518L643 518L643 468L771 468L771 541L900 541L900 509L900 601L900 601L771 601L771 601L643 601L643 601L514 601L514 601L386 601L386 601L257 601L257 601L129 601L129 601L0 601Z" fill="#2b2a2c"></path></svg>