<svg id="visual" viewBox="0 0 900 600" width="900" height="600" xmlns="http://www.w3.org/2000/svg" xmlns:xlink="http://www.w3.org/1999/xlink" version="1.1"><path d="M0 79L13.7 78C27.3 77 54.7 75 82 71C109.3 67 136.7 61 163.8 59C191 57 218 59 245.2 61C272.3 63 299.7 65 327 63C354.3 61 381.7 55 409 50C436.3 45 463.7 41 491 40C518.3 39 545.7 41 573 45C600.3 49 627.7 55 654.8 65C682 75 709 89 736.2 94C763.3 99 790.7 95 818 91C845.3 87 872.7 83 886.3 81L900 79L900 0L886.3 0C872.7 0 845.3 0 818 0C790.7 0 763.3 0 736.2 0C709 0 682 0 654.8 0C627.7 0 600.3 0 573 0C545.7 0 518.3 0 491 0C463.7 0 436.3 0 409 0C381.7 0 354.3 0 327 0C299.7 0 272.3 0 245.2 0C218 0 191 0 163.8 0C136.7 0 109.3 0 82 0C54.7 0 27.3 0 13.7 0L0 0Z" fill="#6198ff"></path><path d="M0 199L13.7 215C27.3 231 54.7 263 82 279C109.3 295 136.7 295 163.8 272C191 249 218 203 245.2 181C272.3 159 299.7 161 327 160C354.3 159 381.7 155 409 159C436.3 163 463.7 175 491 176C518.3 177 545.7 167 573 166C600.3 165 627.7 173 654.8 192C682 211 709 241 736.2 245C763.3 249 790.7 227 818 213C845.3 199 872.7 193 886.3 190L900 187L900 77L886.3 79C872.7 81 845.3 85 818 89C790.7 93 763.3 97 736.2 92C709 87 682 73 654.8 63C627.7 53 600.3 47 573 43C545.7 39 518.3 37 491 38C463.7 39 436.3 43 409 48C381.7 53 354.3 59 327 61C299.7 63 272.3 61 245.2 59C218 57 191 55 163.8 57C136.7 59 109.3 65 82 69C54.7 73 27.3 75 13.7 76L0 77Z" fill="#3c80ff"></path><path d="M0 397L13.7 394C27.3 391 54.7 385 82 396C109.3 407 136.7 435 163.8 447C191 459 218 455 245.2 443C272.3 431 299.7 411 327 404C354.3 397 381.7 403 409 400C436.3 397 463.7 385 491 390C518.3 395 545.7 417 573 425C600.3 433 627.7 427 654.8 431C682 435 709 449 736.2 451C763.3 453 790.7 443 818 431C845.3 419 872.7 405 886.3 398L900 391L900 185L886.3 188C872.7 191 845.3 197 818 211C790.7 225 763.3 247 736.2 243C709 239 682 209 654.8 190C627.7 171 600.3 163 573 164C545.7 165 518.3 175 491 174C463.7 173 436.3 161 409 157C381.7 153 354.3 157 327 158C299.7 159 272.3 157 245.2 179C218 201 191 247 163.8 270C136.7 293 109.3 293 82 277C54.7 261 27.3 229 13.7 213L0 197Z" fill="#0066ff"></path><path d="M0 529L13.7 521C27.3 513 54.7 497 82 501C109.3 505 136.7 529 163.8 534C191 539 218 525 245.2 519C272.3 513 299.7 515 327 509C354.3 503 381.7 489 409 493C436.3 497 463.7 519 491 525C518.3 531 545.7 521 573 523C600.3 525 627.7 539 654.8 547C682 555 709 557 736.2 554C763.3 551 790.7 543 818 539C845.3 535 872.7 535 886.3 535L900 535L900 389L886.3 396C872.7 403 845.3 417 818 429C790.7 441 763.3 451 736.2 449C709 447 682 433 654.8 429C627.7 425 600.3 431 573 423C545.7 415 518.3 393 491 388C463.7 383 436.3 395 409 398C381.7 401 354.3 395 327 402C299.7 409 272.3 429 245.2 441C218 453 191 457 163.8 445C136.7 433 109.3 405 82 394C54.7 383 27.3 389 13.7 392L0 395Z" fill="#0059dd"></path><path d="M0 601L13.7 601C27.3 601 54.7 601 82 601C109.3 601 136.7 601 163.8 601C191 601 218 601 245.2 601C272.3 601 299.7 601 327 601C354.3 601 381.7 601 409 601C436.3 601 463.7 601 491 601C518.3 601 545.7 601 573 601C600.3 601 627.7 601 654.8 601C682 601 709 601 736.2 601C763.3 601 790.7 601 818 601C845.3 601 872.7 601 886.3 601L900 601L900 533L886.3 533C872.7 533 845.3 533 818 537C790.7 541 763.3 549 736.2 552C709 555 682 553 654.8 545C627.7 537 600.3 523 573 521C545.7 519 518.3 529 491 523C463.7 517 436.3 495 409 491C381.7 487 354.3 501 327 507C299.7 513 272.3 511 245.2 517C218 523 191 537 163.8 532C136.7 527 109.3 503 82 499C54.7 495 27.3 511 13.7 519L0 527Z" fill="#004cbb"></path></svg>